<mxfile host="app.diagrams.net" agent="Mozilla/5.0 (Windows NT 10.0; Win64; x64; rv:134.0) Gecko/20100101 Firefox/134.0" version="26.0.8">
  <diagram name="Page-1" id="UGBTXsUVPfh2lddYwmXs">
    <mxGraphModel dx="1050" dy="531" grid="1" gridSize="10" guides="1" tooltips="1" connect="1" arrows="1" fold="1" page="1" pageScale="1" pageWidth="850" pageHeight="1100" math="0" shadow="0">
      <root>
        <mxCell id="0" />
        <mxCell id="1" parent="0" />
        <mxCell id="2JIg1LVGBxpiylWpEzh6-1" value="&lt;b&gt;&lt;font style=&quot;font-size: 24px;&quot;&gt;Start&lt;/font&gt;&lt;/b&gt;" style="ellipse;whiteSpace=wrap;html=1;fontFamily=Times New Roman;" parent="1" vertex="1">
          <mxGeometry x="340" y="10" width="120" height="80" as="geometry" />
        </mxCell>
        <mxCell id="2JIg1LVGBxpiylWpEzh6-2" value="Ask for the number" style="shape=parallelogram;perimeter=parallelogramPerimeter;whiteSpace=wrap;html=1;fixedSize=1;" parent="1" vertex="1">
          <mxGeometry x="330" y="140" width="140" height="70" as="geometry" />
        </mxCell>
        <mxCell id="2JIg1LVGBxpiylWpEzh6-3" value="&lt;div&gt;Divide the number by&lt;/div&gt;&lt;div&gt;2&lt;br&gt;&lt;/div&gt;" style="rounded=0;whiteSpace=wrap;html=1;" parent="1" vertex="1">
          <mxGeometry x="340" y="260" width="120" height="60" as="geometry" />
        </mxCell>
        <mxCell id="2JIg1LVGBxpiylWpEzh6-4" value="&lt;div&gt;See if the number &lt;br&gt;&lt;/div&gt;&lt;div&gt;a decimal point&lt;br&gt;&lt;/div&gt;" style="rhombus;whiteSpace=wrap;html=1;" parent="1" vertex="1">
          <mxGeometry x="330" y="345" width="130" height="130" as="geometry" />
        </mxCell>
        <mxCell id="2JIg1LVGBxpiylWpEzh6-5" value="Print &quot;Odd&quot;" style="rounded=0;whiteSpace=wrap;html=1;" parent="1" vertex="1">
          <mxGeometry x="70" y="380" width="120" height="60" as="geometry" />
        </mxCell>
        <mxCell id="2JIg1LVGBxpiylWpEzh6-6" value="Print &quot;Even&quot;" style="rounded=0;whiteSpace=wrap;html=1;" parent="1" vertex="1">
          <mxGeometry x="650" y="380" width="120" height="60" as="geometry" />
        </mxCell>
        <mxCell id="2JIg1LVGBxpiylWpEzh6-7" value="End" style="ellipse;whiteSpace=wrap;html=1;fontStyle=1;fontFamily=Times New Roman;fontSize=24;" parent="1" vertex="1">
          <mxGeometry x="340" y="520" width="120" height="80" as="geometry" />
        </mxCell>
        <mxCell id="2JIg1LVGBxpiylWpEzh6-8" value="" style="endArrow=classic;html=1;rounded=0;" parent="1" edge="1">
          <mxGeometry width="50" height="50" relative="1" as="geometry">
            <mxPoint x="399.5" y="100" as="sourcePoint" />
            <mxPoint x="399.5" y="130" as="targetPoint" />
            <Array as="points">
              <mxPoint x="399.5" y="120" />
            </Array>
          </mxGeometry>
        </mxCell>
        <mxCell id="2JIg1LVGBxpiylWpEzh6-12" value="" style="endArrow=classic;html=1;rounded=0;" parent="1" edge="1">
          <mxGeometry width="50" height="50" relative="1" as="geometry">
            <mxPoint x="320" y="409.5" as="sourcePoint" />
            <mxPoint x="200" y="410" as="targetPoint" />
          </mxGeometry>
        </mxCell>
        <mxCell id="2JIg1LVGBxpiylWpEzh6-14" value="" style="endArrow=classic;html=1;rounded=0;" parent="1" edge="1">
          <mxGeometry width="50" height="50" relative="1" as="geometry">
            <mxPoint x="470" y="410" as="sourcePoint" />
            <mxPoint x="640" y="410" as="targetPoint" />
          </mxGeometry>
        </mxCell>
        <mxCell id="2JIg1LVGBxpiylWpEzh6-16" value="" style="endArrow=classic;html=1;rounded=0;" parent="1" edge="1">
          <mxGeometry width="50" height="50" relative="1" as="geometry">
            <mxPoint x="130" y="560" as="sourcePoint" />
            <mxPoint x="320" y="560" as="targetPoint" />
          </mxGeometry>
        </mxCell>
        <mxCell id="2JIg1LVGBxpiylWpEzh6-17" value="" style="endArrow=none;html=1;rounded=0;" parent="1" edge="1">
          <mxGeometry width="50" height="50" relative="1" as="geometry">
            <mxPoint x="130" y="560" as="sourcePoint" />
            <mxPoint x="130" y="450" as="targetPoint" />
          </mxGeometry>
        </mxCell>
        <mxCell id="2JIg1LVGBxpiylWpEzh6-18" value="" style="endArrow=classic;html=1;rounded=0;" parent="1" edge="1">
          <mxGeometry width="50" height="50" relative="1" as="geometry">
            <mxPoint x="710" y="560" as="sourcePoint" />
            <mxPoint x="470" y="560" as="targetPoint" />
          </mxGeometry>
        </mxCell>
        <mxCell id="2JIg1LVGBxpiylWpEzh6-19" value="" style="endArrow=none;html=1;rounded=0;" parent="1" edge="1">
          <mxGeometry width="50" height="50" relative="1" as="geometry">
            <mxPoint x="710" y="560" as="sourcePoint" />
            <mxPoint x="710" y="450" as="targetPoint" />
          </mxGeometry>
        </mxCell>
        <mxCell id="2JIg1LVGBxpiylWpEzh6-20" value="" style="endArrow=classic;html=1;rounded=0;" parent="1" edge="1">
          <mxGeometry width="50" height="50" relative="1" as="geometry">
            <mxPoint x="394.5" y="320" as="sourcePoint" />
            <mxPoint x="394.5" y="340" as="targetPoint" />
          </mxGeometry>
        </mxCell>
        <mxCell id="2JIg1LVGBxpiylWpEzh6-21" value="" style="endArrow=classic;html=1;rounded=0;" parent="1" edge="1">
          <mxGeometry width="50" height="50" relative="1" as="geometry">
            <mxPoint x="399.5" y="210" as="sourcePoint" />
            <mxPoint x="399.5" y="250" as="targetPoint" />
          </mxGeometry>
        </mxCell>
        <mxCell id="2JIg1LVGBxpiylWpEzh6-24" value="Yes" style="text;html=1;align=center;verticalAlign=middle;whiteSpace=wrap;rounded=0;" parent="1" vertex="1">
          <mxGeometry x="230" y="370" width="60" height="30" as="geometry" />
        </mxCell>
        <mxCell id="2JIg1LVGBxpiylWpEzh6-25" value="No" style="text;html=1;align=center;verticalAlign=middle;whiteSpace=wrap;rounded=0;" parent="1" vertex="1">
          <mxGeometry x="520" y="370" width="60" height="30" as="geometry" />
        </mxCell>
      </root>
    </mxGraphModel>
  </diagram>
</mxfile>
